<?xml version="1.0" encoding="UTF-8" standalone="no"?>
<svg width="196px" height="200px" viewBox="0 0 196 200" version="1.1" xmlns="http://www.w3.org/2000/svg" xmlns:xlink="http://www.w3.org/1999/xlink" xmlns:sketch="http://www.bohemiancoding.com/sketch/ns">
    <title>Untitled</title>
    <description>Created with Sketch (http://www.bohemiancoding.com/sketch)</description>
    <defs></defs>
    <g id="Page-1" stroke="none" stroke-width="1" fill="none" fill-rule="evenodd" sketch:type="MSPage">
        <g id="noun_project_19818" sketch:type="MSLayerGroup" transform="translate(20.000000, 0.000000)" fill="#381E11">
            <path d="M153.746261,107.302326 L144.469198,107.302326 C144.48887,106.710212 144.500673,106.08432 144.500673,105.448493 C144.500673,104.649736 143.851514,104 143.064656,104 L1.43404972,104 C0.639322578,104 0,104.649736 0,105.448493 C0,148.009151 34.063107,175 48.4429471,175 L96.0537913,175 C107.248821,175 123.123693,161.226401 131.727991,148.211821 L153.746261,148.211821 C164.915718,148.211821 174,139.043993 174,127.760054 C174,116.478101 164.915718,107.302326 153.746261,107.302326 L153.746261,107.302326 L153.746261,107.302326 L153.746261,107.302326 Z M153.229387,138 L140.271471,138 C139.596401,138 138.778307,137.513102 138.316819,136.833392 C138.147098,136.591891 137.89347,136.118626 138.047935,135.692103 C138.103237,135.544086 138.147098,135.396069 138.173795,135.246105 C140.111285,130.688739 141.604449,125.936615 142.61324,121.114377 C143.61059,117.85995 145.752126,116 148.51343,116 L153.229387,116 C159.167717,116 163.999999,120.937146 163.999999,127 C164.001906,133.068697 159.167717,138 153.229387,138 L153.229387,138 L153.229387,138 L153.229387,138 Z M153.229387,138" id="Shape" sketch:type="MSShapeGroup"></path>
            <path d="M101.307394,181 L25.691358,181 C23.105679,181 21,183.243995 21,186.004214 C21,188.758112 23.1037037,191 25.691358,191 L120.314568,191 C122.900247,191 125,188.758112 125,186.004214 C125,183.246102 122.898272,181 120.314568,181 L101.307394,181 Z M101.307394,181" id="Shape" sketch:type="MSShapeGroup"></path>
            <path d="M50.1029457,83 C47.1949884,83 44.6954078,80.8042655 44.3856729,77.8503627 C42.2234469,57.2675675 49.5939545,43.4984416 55.5085108,32.4350907 C58.4440877,26.9487084 60.9811522,22.2126175 61.5315729,18.0023213 C61.945868,14.8534608 64.8380426,12.6360644 67.9866856,13.0496108 C71.1412471,13.4611879 73.364631,16.3461664 72.9503358,19.4930576 C72.1237184,25.7769936 68.9869124,31.6414754 65.6666328,37.8466407 C60.2196383,48.0297286 54.044668,59.5716117 55.837974,76.6510781 C56.1674373,79.8097849 53.8769771,82.6356853 50.7105786,82.9665224 C50.5073767,82.9901537 50.3041748,83 50.1029457,83 L50.1029457,83 L50.1029457,83 L50.1029457,83 Z M50.1029457,83" id="Shape" sketch:type="MSShapeGroup"></path>
            <path d="M71.2132842,94 C68.5912367,94 66.2360692,92.1562583 65.6614005,89.458677 C60.6004202,65.7858229 68.1061773,51.3790031 74.7275292,38.6680312 C80.0690257,28.4180108 84.6800112,19.564107 83.4157402,6.30691434 C83.1157436,3.14396075 85.4085742,0.332008234 88.5332133,0.0283331383 C91.6442162,-0.285201539 94.4337943,2.03968767 94.7357388,5.20461318 C96.3253308,21.8889962 90.4578663,33.1486378 84.7891009,44.039531 C78.5164463,56.0800513 72.590541,67.4520921 76.77296,87.0273043 C77.437238,90.1350442 75.4872606,93.1974301 72.4191144,93.8678816 C72.0139243,93.9566178 71.6106822,94 71.2132842,94 L71.2132842,94 L71.2132842,94 L71.2132842,94 Z M71.2132842,94" id="Shape" sketch:type="MSShapeGroup"></path>
            <path d="M86.4128003,78.0628396 C84.5357484,65.0714551 89.4023249,56.4585679 94.1057651,48.1319215 C98.2313483,40.8179754 102.502379,33.2552959 103.54999,21.2568709 C103.82516,18.0884812 106.60241,15.7373585 109.764899,16.0235993 C112.91756,16.2979956 115.256504,19.0932852 114.977403,22.2636489 C113.715553,36.7612522 108.375291,46.2170692 104.080675,53.8192303 C99.6524044,61.6602543 96.4506059,67.3258482 97.7714215,76.4085651 C98.2195553,79.557214 96.0476785,82.4827925 92.9087759,82.9368296 C92.633606,82.9763111 92.3564706,83 92.0832661,83 C89.2784985,83 86.8235897,80.9291958 86.4128003,78.0628396 Z M86.4128003,78.0628396" id="Shape" sketch:type="MSShapeGroup"></path>
        </g>
    </g>
</svg>